<?xml version="1.0" encoding="iso-8859-1"?>
<!-- Generator: Adobe Illustrator 19.0.0, SVG Export Plug-In . SVG Version: 6.00 Build 0)  -->
<svg version="1.1" id="Capa_1" xmlns="http://www.w3.org/2000/svg" xmlns:xlink="http://www.w3.org/1999/xlink" x="0px" y="0px"
	 viewBox="0 0 512 512" style="enable-background:new 0 0 512 512;" xml:space="preserve">
<g>
	<polygon style="fill:#0B9FBD;" points="203.034,308.966 326.621,308.966 203.034,485.517 150.069,485.517 	"/>
	<polygon style="fill:#0B9FBD;" points="194.207,203.034 317.793,203.034 194.207,26.483 141.241,26.483 	"/>
</g>
<polygon style="fill:#E65848;" points="44.138,114.759 88.276,203.034 0,203.034 0,114.759 "/>
<path style="fill:#FDC536;" d="M0,203.034L0,203.034c0,58.5,47.431,105.931,105.931,105.931H512
	c0-58.5-47.431-105.931-105.931-105.931H0z"/>
<g>
	<path style="fill:#FEE8AF;" d="M335.448,238.345L335.448,238.345c9.754,0,17.655,7.901,17.655,17.655l0,0
		c0,9.754-7.901,17.655-17.655,17.655l0,0c-9.754,0-17.655-7.901-17.655-17.655l0,0
		C317.793,246.246,325.694,238.345,335.448,238.345z"/>
	<path style="fill:#FEE8AF;" d="M264.828,238.345L264.828,238.345c9.754,0,17.655,7.901,17.655,17.655l0,0
		c0,9.754-7.901,17.655-17.655,17.655l0,0c-9.754,0-17.655-7.901-17.655-17.655l0,0
		C247.172,246.246,255.073,238.345,264.828,238.345z"/>
	<path style="fill:#FEE8AF;" d="M194.207,238.345L194.207,238.345c9.754,0,17.655,7.901,17.655,17.655l0,0
		c0,9.754-7.901,17.655-17.655,17.655l0,0c-9.754,0-17.655-7.901-17.655-17.655l0,0
		C176.552,246.246,184.452,238.345,194.207,238.345z"/>
	<path style="fill:#FEE8AF;" d="M484.864,238.345h-61.14c-9.754,0-17.655,7.901-17.655,17.655l0,0
		c0,9.754,7.901,17.655,17.655,17.655h82.097C501.213,260.626,494.089,248.629,484.864,238.345z"/>
	<path style="fill:#FEE8AF;" d="M123.586,238.345L123.586,238.345c9.754,0,17.655,7.901,17.655,17.655l0,0
		c0,9.754-7.901,17.655-17.655,17.655l0,0c-9.754,0-17.655-7.901-17.655-17.655l0,0
		C105.931,246.246,113.832,238.345,123.586,238.345z"/>
</g>
<g>
</g>
<g>
</g>
<g>
</g>
<g>
</g>
<g>
</g>
<g>
</g>
<g>
</g>
<g>
</g>
<g>
</g>
<g>
</g>
<g>
</g>
<g>
</g>
<g>
</g>
<g>
</g>
<g>
</g>
</svg>
